<svg xmlns="http://www.w3.org/2000/svg" width="680" viewBox="0 0 680 560" role="img" aria-labelledby="ap-title ap-desc">
<title id="ap-title">AgentEchelon authority plane</title>
<desc id="ap-desc">People and assistants are peer principals above one IAM decision plane. The conversation is the live context; governed resources sit beside it; one assistant is denied on a context store. The conversation streams to a Kinesis-fed archive, and derived context returns as a classification-scoped resource, closing a governed loop.</desc>
<style>
text{font-family:-apple-system,BlinkMacSystemFont,'Segoe UI',Roboto,Helvetica,Arial,sans-serif}
.h{font-size:14px;font-weight:500}.s{font-size:12px;font-weight:400}
.plain{fill:#5F5E5A}
.ln{stroke:#5F5E5A;stroke-width:1;fill:none}
.dash{stroke:#888780;stroke-width:1;fill:none;stroke-dasharray:5 4}
.frame{fill:none;stroke:#888780;stroke-width:.5;stroke-dasharray:5 4}
.deny{stroke:#E24B4A;stroke-width:1.5;fill:none;stroke-dasharray:6 4}
.purple rect{fill:#EEEDFE;stroke:#534AB7;stroke-width:.5}.purple .h{fill:#3C3489}.purple .s{fill:#534AB7}
.coral rect{fill:#FAECE7;stroke:#993C1D;stroke-width:.5}.coral .h{fill:#712B13}.coral .s{fill:#993C1D}
.pink rect{fill:#FBEAF0;stroke:#993556;stroke-width:.5}.pink .h{fill:#72243E}.pink .s{fill:#993556}
.amber rect{fill:#FAEEDA;stroke:#854F0B;stroke-width:.5}.amber .h{fill:#633806}.amber .s{fill:#854F0B}
.teal rect{fill:#E1F5EE;stroke:#0F6E56;stroke-width:.5}.teal .h{fill:#085041}.teal .s{fill:#0F6E56}
.gray rect{fill:#F1EFE8;stroke:#5F5E5A;stroke-width:.5}.gray .h{fill:#444441}.gray .s{fill:#5F5E5A}
.redb rect{fill:#FCEBEB;stroke:#A32D2D;stroke-width:.5}.redb .s{fill:#791F1F}
@media(prefers-color-scheme:dark){
.plain{fill:#B4B2A9}.ln{stroke:#B4B2A9}.dash{stroke:#B4B2A9}.frame{stroke:#B4B2A9}
.purple rect{fill:#3C3489;stroke:#AFA9EC}.purple .h{fill:#CECBF6}.purple .s{fill:#AFA9EC}
.coral rect{fill:#712B13;stroke:#F0997B}.coral .h{fill:#F5C4B3}.coral .s{fill:#F0997B}
.pink rect{fill:#72243E;stroke:#ED93B1}.pink .h{fill:#F4C0D1}.pink .s{fill:#ED93B1}
.amber rect{fill:#633806;stroke:#EF9F27}.amber .h{fill:#FAC775}.amber .s{fill:#EF9F27}
.teal rect{fill:#085041;stroke:#5DCAA5}.teal .h{fill:#9FE1CB}.teal .s{fill:#5DCAA5}
.gray rect{fill:#444441;stroke:#B4B2A9}.gray .h{fill:#D3D1C7}.gray .s{fill:#B4B2A9}
.redb rect{fill:#791F1F;stroke:#F09595}.redb .s{fill:#F7C1C1}
}
</style>
<defs>
<marker id="ag" viewBox="0 0 10 10" refX="8" refY="5" markerWidth="6" markerHeight="6" orient="auto-start-reverse"><path d="M2 1L8 5L2 9" fill="none" stroke="#5F5E5A" stroke-width="1.5" stroke-linecap="round" stroke-linejoin="round"/></marker>
<marker id="ar" viewBox="0 0 10 10" refX="8" refY="5" markerWidth="6" markerHeight="6" orient="auto-start-reverse"><path d="M2 1L8 5L2 9" fill="none" stroke="#E24B4A" stroke-width="1.5" stroke-linecap="round" stroke-linejoin="round"/></marker>
</defs>
<g class="purple"><rect x="40" y="40" width="136" height="56" rx="8"/><text class="h" x="108" y="63" text-anchor="middle">User</text><text class="s" x="108" y="82" text-anchor="middle">Bearer-pinned STS</text></g>
<g class="purple"><rect x="196" y="40" width="136" height="56" rx="8"/><text class="h" x="264" y="63" text-anchor="middle">Guest</text><text class="s" x="264" y="82" text-anchor="middle">Federated, scoped</text></g>
<g class="coral"><rect x="352" y="40" width="136" height="56" rx="8"/><text class="h" x="420" y="63" text-anchor="middle">Assistant A</text><text class="s" x="420" y="82" text-anchor="middle">Own IAM scope</text></g>
<g class="pink"><rect x="508" y="40" width="136" height="56" rx="8"/><text class="h" x="576" y="63" text-anchor="middle">Assistant B</text><text class="s" x="576" y="82" text-anchor="middle">Different IAM scope</text></g>
<line class="ln" x1="108" y1="96" x2="108" y2="136" marker-end="url(#ag)"/>
<line class="ln" x1="264" y1="96" x2="264" y2="136" marker-end="url(#ag)"/>
<line class="ln" x1="420" y1="96" x2="420" y2="136" marker-end="url(#ag)"/>
<line class="ln" x1="576" y1="96" x2="576" y2="136" marker-end="url(#ag)"/>
<g class="amber"><rect x="40" y="140" width="604" height="52" rx="8"/><text class="h" x="342" y="162" text-anchor="middle">IAM decision plane</text><text class="s" x="342" y="181" text-anchor="middle">Per actor, per resource, fail-closed</text></g>
<line class="ln" x1="160" y1="192" x2="160" y2="232" marker-end="url(#ag)"/>
<line class="ln" x1="300" y1="192" x2="300" y2="232" marker-end="url(#ag)"/>
<g class="teal"><rect x="40" y="236" width="380" height="144" rx="14"/>
<text class="h" x="230" y="265" text-anchor="middle">Conversation - the live context</text>
<text class="s" x="230" y="287" text-anchor="middle">arn:…:channel/… · classification tag</text>
<text class="s" x="230" y="318" text-anchor="middle">Messages · memberships · attachments</text>
<text class="s" x="230" y="340" text-anchor="middle">Targeted scopes, people or assistants</text>
<text class="s" x="230" y="362" text-anchor="middle">Durable - the memory is the channel</text></g>
<rect class="frame" x="444" y="236" width="200" height="144" rx="12"/>
<text class="h plain" x="540" y="257" text-anchor="middle">Governed resources</text>
<g class="gray"><rect x="456" y="266" width="172" height="28" rx="6"/><text class="s" x="542" y="284" text-anchor="middle">Models</text></g>
<g class="gray"><rect x="456" y="302" width="172" height="28" rx="6"/><text class="s" x="542" y="320" text-anchor="middle">Context stores · RAG</text></g>
<g class="gray"><rect x="456" y="338" width="172" height="28" rx="6"/><text class="s" x="542" y="356" text-anchor="middle">Tools and connectors</text></g>
<g class="redb"><rect x="440" y="204" width="168" height="24" rx="6"/><text class="s" x="524" y="220" text-anchor="middle">Assistant A: AccessDenied</text></g>
<path class="deny" d="M620 192 L620 296" marker-end="url(#ar)"/>
<line class="ln" x1="230" y1="380" x2="230" y2="420" marker-end="url(#ag)"/>
<g class="gray"><rect x="40" y="424" width="380" height="56" rx="8"/><text class="h" x="230" y="447" text-anchor="middle">Kinesis-fed archive - system of record</text><text class="s" x="230" y="467" text-anchor="middle">Every event: messages, memberships, redactions</text></g>
<line class="ln" x1="420" y1="452" x2="440" y2="452" marker-end="url(#ag)"/>
<g class="gray"><rect x="444" y="424" width="200" height="56" rx="8"/><text class="h" x="544" y="447" text-anchor="middle">Athena or Aurora</text><text class="s" x="544" y="467" text-anchor="middle">Analytics · evaluation</text></g>
<path class="dash" d="M644 452 L652 452 L652 316 L634 316" marker-end="url(#ag)"/>
<text class="s plain" x="530" y="404" text-anchor="middle">Derived context returns</text>
<text class="s plain" x="40" y="514">Summaries and embeddings re-enter as a classification-scoped resource - the loop is governed end to end</text>
<text class="s plain" x="40" y="538">Purple = people · coral and pink = assistants · every box above the plane is a principal</text>
</svg>
